<?xml version="1.0" encoding="utf-8"?>
<!-- Generator: Adobe Illustrator 19.0.0, SVG Export Plug-In . SVG Version: 6.00 Build 0)  -->
<svg version="1.1" id="レイヤー_1" xmlns="http://www.w3.org/2000/svg" xmlns:xlink="http://www.w3.org/1999/xlink" x="0px"
	 y="0px" viewBox="-726 2090.4 2584 944" style="enable-background:new -726 2090.4 2584 944;" xml:space="preserve">
<style type="text/css">
	.st0{opacity:0.3;}
	.st1{opacity:0.5;}
	.st2{fill:#666666;}
</style>
<g class="st0">
	<path d="M725.7,2748.9c0,0-82.5,2.3-106.8,0c-37.2-3.5-66.2-11.6-87.1-33.7c-20.9-22.1-31.4-51.1-31.4-87.1h339.1v-60.4
		c0-76.6-20.9-138.2-61.5-185.8c-43-48.8-101-74.3-175.4-74.3c-72,0-128.9,24.4-170.7,72c-44.1,49.9-66.2,118.5-66.2,205.5
		c0,185.8,83.6,278.7,250.8,278.7c20.9,0,108,0,108,0L725.7,2748.9z M512,2477.1c16.3-37.2,46.5-55.7,90.6-55.7s74.3,18.6,90.6,55.7
		c8.1,16.3,11.6,36,12.8,58.1H499.3C500.4,2513.1,503.9,2493.4,512,2477.1z"/>
	<path d="M1572.3,2308.8c-8.1,0-95.2,0-103.4,0v115c5.8,0,90.6-1.2,96.4-1.2c67.4,0,101,29,101,85.9v26.7h-127.7
		c-60.4,0-105.7,15.1-137,44.1c-31.4,29-47.6,67.4-47.6,112.6c0,51.1,15.1,91.7,45.3,123.1c30.2,31.4,76.6,46.5,137,46.5
		c54.6,0,98.7-17.4,133.5-52.3v46.5h132.4v-355.4C1804.5,2372.6,1726.7,2308.8,1572.3,2308.8z M1667.5,2657.1
		c0,27.9-4.6,47.6-12.8,60.4c-15.1,23.2-46.5,34.8-91.7,34.8c-52.3,0-77.8-20.9-77.8-62.7c0-40.6,25.5-61.5,75.5-61.5h106.8V2657.1z
		"/>
	<path d="M1149.6,2527.1l-85.9-8.1c-37.2-3.5-55.7-18.6-55.7-46.5c0-34.8,25.5-52.3,76.6-52.3c23.2,0,219.5,0,219.5,0v-111.5
		c0,0-196.3,0-217.2,0c-58.1,0-106.8,15.1-146.3,44.1c-41.8,32.5-63.9,75.5-63.9,128.9c0,90.6,52.3,141.7,157.9,152.1l85.9,8.1
		c38.3,3.5,56.9,19.7,56.9,49.9c0,37.2-32.5,55.7-96.4,55.7c-16.3,0-195.1,0-195.1,0v116.1c0,0,177.7,0,192.8,0
		c67.4,0,121.9-15.1,163.7-44.1c44.1-31.4,66.2-75.5,66.2-133.5C1311,2591,1257.6,2537.5,1149.6,2527.1z"/>
</g>
<g class="st1">
	<path class="st2" d="M-223.9,2100.4c-263.1,0-477.2,201.8-477.2,449.8s214.1,449.8,477,449.8s477-201.8,477-449.8
		C253.1,2302.2,39,2100.4-223.9,2100.4z M-223.9,2970c-246.6,0-447-188.4-447-419.8s200.4-419.8,447-419.8s447,188.4,447,419.8
		C223.1,2781.7,22.5,2970-223.9,2970z"/>
	<path class="st2" d="M-468.4,2431.3c-19.2,0-35.5,6.5-47.4,18.8c-14.9,14.9-22.5,39.6-22.5,71.1c0,31.3,8,56.2,22.5,71.1
		c11.8,12.3,28.2,18.8,47.4,18.8c18.8,0,35.5-6.5,47.4-18.8c14.9-14.9,22.5-39.6,22.5-71.1c0-31.7-7.6-55.8-22.5-71.1
		C-432.9,2437.9-449.2,2431.3-468.4,2431.3z M-468.4,2578.4c-21,0-31.7-19.4-31.7-57.2s10.6-57.2,31.7-57.2s31.7,19.4,31.7,57.2
		S-447.4,2578.4-468.4,2578.4z"/>
	<path class="st2" d="M-213.7,2429.1c-39,0-77.8,14.9-106.2,40.4c-33.9,31.7-52.3,72.1-52.3,117.7c0,87.4,71.1,158.5,158.5,158.5
		c87,0,158.1-71.1,158.1-158.5c0-39.4-14.5-76.8-40.9-105.8C-126.9,2447.5-168.1,2429.1-213.7,2429.1z M-213.7,2730
		c-78.7,0-142.8-64.1-142.8-142.8c0-78.7,63.7-142.4,142.8-142.4c34.7,0,69.9,13.3,95.2,36.6c30.8,28.2,47.4,65,47.4,105.8
		C-71.1,2666.3-135,2730-213.7,2730z"/>
	<path class="st2" d="M-340.5,2586.7c0-12.1,9.9-22,22-22h209.4c12.1,0,22,9.9,22,22v0.4c0,12.1-9.9,22-22,22h-209.4
		c-12.1,0-22-9.9-22-22V2586.7z"/>
	<path class="st2" d="M87.6,2450.1c-11.8-12.3-28.2-18.8-47.4-18.8c-19.2,0-35.5,6.5-47.4,18.8c-14.9,14.9-22.5,39.6-22.5,71.1
		c0,31.3,8,56.2,22.5,71.1c11.8,12.3,28.2,18.8,47.4,18.8c18.8,0,35.5-6.5,47.4-18.8c14.9-14.9,22.5-39.6,22.5-71.1
		C110.1,2489.3,102.6,2465.2,87.6,2450.1z M40.3,2578.4c-21,0-31.7-19.4-31.7-57.2s10.6-57.2,31.7-57.2s31.7,19.4,31.7,57.2
		S61.3,2578.4,40.3,2578.4z"/>
</g>
</svg>
