<?xml version="1.0" encoding="utf-8"?>
<!-- Generator: Adobe Illustrator 17.1.0, SVG Export Plug-In . SVG Version: 6.00 Build 0)  -->
<!DOCTYPE svg PUBLIC "-//W3C//DTD SVG 1.1//EN" "http://www.w3.org/Graphics/SVG/1.1/DTD/svg11.dtd">
<svg version="1.1" id="レイヤー_1" xmlns="http://www.w3.org/2000/svg" xmlns:xlink="http://www.w3.org/1999/xlink" x="0px"
	 y="0px" viewBox="924 1176 1596 696" enable-background="new 924 1176 1596 696" xml:space="preserve">
<g opacity="0.3">
	<path d="M1356.4,1700.4c0,0-82.5,2.3-106.8,0c-37.2-3.5-66.2-11.6-87.1-33.7c-20.9-22.1-31.4-51.1-31.4-87.1h339.1v-60.4
		c0-76.6-20.9-138.2-61.5-185.8c-43-48.8-101-74.3-175.4-74.3c-72,0-128.9,24.4-170.7,72c-44.1,49.9-66.2,118.5-66.2,205.5
		c0,185.8,83.6,278.7,250.8,278.7c20.9,0,108,0,108,0L1356.4,1700.4z M1142.7,1428.6c16.3-37.2,46.5-55.7,90.6-55.7
		s74.3,18.6,90.6,55.7c8.1,16.3,11.6,36,12.8,58.1h-206.7C1131.1,1464.6,1134.6,1444.9,1142.7,1428.6z"/>
	<path d="M2203,1260.3c-8.1,0-95.2,0-103.4,0v115c5.8,0,90.6-1.2,96.4-1.2c67.4,0,101,29,101,85.9v26.7h-127.7
		c-60.4,0-105.7,15.1-137,44.1c-31.4,29-47.6,67.4-47.6,112.6c0,51.1,15.1,91.7,45.3,123.1c30.2,31.4,76.6,46.5,137,46.5
		c54.6,0,98.7-17.4,133.5-52.3v46.5h132.4v-355.4C2435.2,1324.1,2357.4,1260.3,2203,1260.3z M2298.2,1608.6
		c0,27.9-4.6,47.6-12.8,60.4c-15.1,23.2-46.5,34.8-91.7,34.8c-52.3,0-77.8-20.9-77.8-62.7c0-40.6,25.5-61.5,75.5-61.5h106.8V1608.6z
		"/>
	<path d="M1780.3,1478.6l-85.9-8.1c-37.2-3.5-55.7-18.6-55.7-46.5c0-34.8,25.5-52.3,76.6-52.3c23.2,0,219.5,0,219.5,0v-111.5
		c0,0-196.3,0-217.2,0c-58.1,0-106.8,15.1-146.3,44.1c-41.8,32.5-63.9,75.5-63.9,128.9c0,90.6,52.3,141.7,157.9,152.1l85.9,8.1
		c38.3,3.5,56.9,19.7,56.9,49.9c0,37.2-32.5,55.7-96.4,55.7c-16.3,0-195.1,0-195.1,0v116.1c0,0,177.7,0,192.8,0
		c67.4,0,121.9-15.1,163.7-44.1c44.1-31.4,66.2-75.5,66.2-133.5C1941.7,1542.5,1888.3,1489,1780.3,1478.6z"/>
</g>
</svg>
