<?xml version="1.0" encoding="utf-8"?>
<!-- Generator: Adobe Illustrator 19.0.0, SVG Export Plug-In . SVG Version: 6.00 Build 0)  -->
<svg version="1.1" id="レイヤー_1" xmlns="http://www.w3.org/2000/svg" xmlns:xlink="http://www.w3.org/1999/xlink" x="0px"
	 y="0px" viewBox="-1167 1425.2 85.8 79" style="enable-background:new -1167 1425.2 85.8 79;" xml:space="preserve">
<style type="text/css">
	.st0{fill:#FFFFFF;}
	.st1{fill:#666666;}
	.st2{fill:#E79012;}
	.st3{opacity:0.5;fill:#666666;enable-background:new    ;}
</style>
<g>
	<circle class="st0" cx="-1124.2" cy="1464.9" r="33.1"/>
	<g>
		<path class="st1" d="M-1144.5,1469c-1-1-1.6-2.7-1.6-4.9c0-2.2,0.5-3.9,1.6-4.9c0.8-0.8,2-1.3,3.3-1.3c1.3,0,2.5,0.4,3.3,1.3
			c1,1.1,1.6,2.7,1.6,4.9c0,2.2-0.5,3.9-1.6,4.9c-0.8,0.8-2,1.3-3.3,1.3C-1142.5,1470.3-1143.7,1469.9-1144.5,1469z M-1143.4,1464.1
			c0,2.6,0.7,4,2.2,4s2.2-1.3,2.2-4c0-2.6-0.7-4-2.2-4S-1143.4,1461.5-1143.4,1464.1z"/>
		<path class="st1" d="M-1109.3,1469c-1-1-1.6-2.7-1.6-4.9c0-2.2,0.5-3.9,1.6-4.9c0.8-0.8,2-1.3,3.3-1.3s2.5,0.4,3.3,1.3
			c1,1.1,1.6,2.7,1.6,4.9c0,2.2-0.5,3.9-1.6,4.9c-0.8,0.8-2,1.3-3.3,1.3C-1107.4,1470.3-1108.5,1469.9-1109.3,1469z M-1108.2,1464.1
			c0,2.6,0.7,4,2.2,4s2.2-1.3,2.2-4c0-2.6-0.7-4-2.2-4S-1108.2,1461.5-1108.2,1464.1z"/>
		<circle class="st2" cx="-1123.4" cy="1468.2" r="10.5"/>
		<path class="st3" d="M-1115.9,1469.9h-14.9c-0.9,0-1.7-0.8-1.7-1.7c0-0.9,0.8-1.7,1.7-1.7h14.9c0.9,0,1.7,0.8,1.7,1.7
			C-1114.2,1469.1-1115,1469.9-1115.9,1469.9z"/>
	</g>
</g>
</svg>
